<svg width="49" height="49" viewBox="0 0 49 49" fill="none" xmlns="http://www.w3.org/2000/svg"><path d="M13.35 18.06l6.81 9.534c.28.393.648.716 1.072.944.425.23.896.357 1.378.375.483.018.962-.075 1.403-.27.44-.197.83-.492 1.139-.863L47.466 1" stroke="#A4D037" stroke-width="2" stroke-linecap="round" stroke-linejoin="round"/><path d="M34.094 7.358c-4.422-2.737-9.682-3.793-14.818-2.976-5.137.818-9.808 3.454-13.163 7.429C2.76 15.786.944 20.834 1.001 26.034c.057 5.201 1.982 10.208 5.423 14.108 3.44 3.9 8.169 6.434 13.322 7.138 5.153.705 10.388-.466 14.75-3.3 4.361-2.833 7.56-7.14 9.01-12.134C44.957 26.85 44.565 21.5 42.4 16.772" stroke="#A4D037" stroke-width="2" stroke-linecap="round" stroke-linejoin="round"/></svg>