<svg xmlns="http://www.w3.org/2000/svg" width="194" height="36" viewBox="0 0 194 36"><g fill="none" fill-rule="evenodd"><rect width="194" height="36" fill="#FFF" rx="8"/><path fill="#A0A3B7" d="M89.469 14.432L86.51 22h-1.584l-2.97-7.568h1.881l1.881 5.093 1.881-5.093h1.87zM90.327 22v-7.568h4.774v1.496h-2.937v1.507h2.508v1.441h-2.508v1.628h3.025V22h-4.862zm8.074-6.116v2.002h.836c.627 0 1.078-.429 1.078-1.001 0-.594-.451-1.001-1.078-1.001h-.836zM96.608 22v-7.568h2.871c1.562 0 2.673 1.012 2.673 2.453 0 .979-.517 1.771-1.386 2.189L102.449 22h-1.958l-1.474-2.673h-.616V22h-1.793zm7.04 0v-7.568h1.837V22h-1.837zm3.641 0v-7.568h4.774v1.496h-2.937v1.793h2.508v1.496h-2.508V22h-1.837zm6.017 0v-7.568h1.837V22h-1.837zm3.641 0v-7.568h4.774v1.496h-2.937v1.507h2.508v1.441h-2.508v1.628h3.025V22h-4.862zm6.281 0v-7.568h3.003c2.189 0 3.74 1.573 3.74 3.784S128.42 22 126.231 22h-3.003zm1.837-6.072v4.576h1.078c1.155 0 1.958-.935 1.958-2.288 0-1.353-.803-2.288-1.958-2.288h-1.078zM134.052 22v-7.568h2.915c1.584 0 2.706 1.034 2.706 2.497 0 1.463-1.122 2.475-2.706 2.475h-1.122V22h-1.793zm1.793-6.116v2.079h.88c.649 0 1.122-.429 1.122-1.034 0-.627-.473-1.045-1.122-1.045h-.88zM139.277 22l2.97-7.568h1.584L146.79 22h-1.782l-.583-1.562h-2.783L141.07 22h-1.793zm3.762-5.357l-.891 2.431h1.771l-.88-2.431zm6.402-.759v2.002h.836c.627 0 1.078-.429 1.078-1.001 0-.594-.451-1.001-1.078-1.001h-.836zM147.648 22v-7.568h2.871c1.562 0 2.673 1.012 2.673 2.453 0 .979-.517 1.771-1.386 2.189L153.489 22h-1.958l-1.474-2.673h-.616V22h-1.793zm8.404 0v-6.072h-2.189v-1.496h6.193v1.496h-2.178V22h-1.826zm5.17 0v-7.568h1.584l3.41 4.664v-4.664h1.705V22h-1.584l-3.399-4.664V22h-1.716zm8.503 0v-7.568h4.774v1.496h-2.937v1.507h2.508v1.441h-2.508v1.628h3.025V22h-4.862zm8.074-6.116v2.002h.836c.627 0 1.078-.429 1.078-1.001 0-.594-.451-1.001-1.078-1.001h-.836zM176.006 22v-7.568h2.871c1.562 0 2.673 1.012 2.673 2.453 0 .979-.517 1.771-1.386 2.189L181.847 22h-1.958l-1.474-2.673h-.616V22h-1.793zM58 13.507L74 10v12.498L58 26V13.507zm6.043 7.247c.347.33.902.328 1.247-.004l4.45-4.275c.347-.337.347-.884 0-1.222-.348-.337-.91-.337-1.258 0l-3.814 3.65-1.15-1.05c-.347-.337-.91-.337-1.258 0-.347.338-.347.885 0 1.222l1.783 1.68zm-14.078-1.531h-5.1c.116 1.25 1.01 1.617 2.026 1.617 1.035 0 1.85-.222 2.56-.59V22.4c-.709.401-1.643.691-2.889.691-2.537 0-4.315-1.626-4.315-4.842 0-2.715 1.508-4.872 3.987-4.872 2.474 0 3.766 2.156 3.766 4.886 0 .258-.023.817-.035.96zm-3.748-3.673c-.652 0-1.375.503-1.375 1.705h2.693c0-1.2-.678-1.705-1.318-1.705zm-8.102 7.54c-.912 0-1.47-.394-1.843-.674l-.006 3.017-2.605.567-.001-12.447h2.294l.135.66c.361-.346 1.02-.837 2.042-.837 1.83 0 3.553 1.686 3.553 4.79 0 3.39-1.705 4.924-3.57 4.924zm-.607-7.352c-.598 0-.973.224-1.244.528l.015 3.962c.253.28.618.507 1.23.507.962 0 1.608-1.074 1.608-2.51 0-1.394-.656-2.487-1.609-2.487zm-7.528-2.185h2.615V22.9H29.98v-9.346zm0-2.984L32.595 10v2.172l-2.615.569v-2.172zm-2.702 5.994V22.9h-2.604v-9.346h2.252l.164.789c.61-1.148 1.828-.915 2.175-.788v2.45c-.332-.109-1.371-.268-1.987.56zM21.78 19.62c0 1.572 1.644 1.083 1.978.946v2.17c-.347.196-.977.354-1.829.354-1.546 0-2.706-1.165-2.706-2.744l.012-8.555 2.543-.553.002 2.315h1.98v2.274h-1.98v3.793zm-3.161.455c0 1.92-1.493 3.015-3.66 3.015-.898 0-1.88-.178-2.848-.605v-2.546c.874.487 1.988.852 2.851.852.582 0 1-.16 1-.653 0-1.272-3.961-.793-3.961-3.745 0-1.888 1.409-3.017 3.522-3.017.863 0 1.726.136 2.59.488v2.51c-.793-.437-1.8-.685-2.592-.685-.546 0-.885.161-.885.578 0 1.2 3.983.629 3.983 3.808z"/></g></svg>