<svg width="26" height="26" viewBox="0 0 26 26" fill="none" xmlns="http://www.w3.org/2000/svg"><path d="M12.75 19.95c-.08 0-.156.023-.222.067-.066.044-.117.107-.148.18-.03.073-.038.153-.022.231.015.078.053.149.11.205.055.056.126.094.204.11.078.015.158.007.231-.023.073-.03.136-.082.18-.148.044-.066.067-.143.067-.222 0-.106-.042-.208-.117-.283-.075-.075-.177-.117-.283-.117z" stroke="#F05230" stroke-width="1.5" stroke-linecap="round" stroke-linejoin="round"/><path d="M12.75 16.75v-8" stroke="#F05230" stroke-width="1.5" stroke-miterlimit="10" stroke-linecap="round"/><path d="M14.48 1.827c-.16-.323-.406-.595-.712-.785C13.463.852 13.11.75 12.75.75s-.713.101-1.018.292c-.306.19-.552.462-.711.785L.916 22.412c-.121.247-.178.522-.164.797.014.275.098.543.243.777.146.234.35.427.59.56.242.134.513.204.788.204h20.753c.276 0 .547-.07.788-.204.242-.133.445-.326.59-.56.146-.234.23-.502.244-.777.014-.275-.043-.55-.164-.797L14.479 1.827z" stroke="#F05230" stroke-width="1.5" stroke-linecap="round" stroke-linejoin="round"/></svg>